# xmcd
#
# Track frame offsets:
#	150
#	15612
#	29860
#	41030
#	54990
#	68787
#	83567
#	97582
#	111085
#	123312
#	137997
#	151667
#	166100
#	178562
#	194262
#	207652
#	222837
#	236942
#	249987
#	263097
#	277517
#
# Disc length: 3925 seconds
#
# Revision: 0
# Processed by: cddbd v1.5.2PL0 Copyright (c) Steve Scherf et al.
# Submitted via: EasyCDDAExtractor 16.0.6.1
#
DISCID=1a0f5315
DTITLE=Συλλογικός δίσκος - Ο πιο καλός ο μαθητής-Γ. Ζαμπέτας 2
DYEAR=1992
DGENRE=Ποικίλη
TTITLE0=Μαρινέλλα - Σταλιά, σταλιά
TTITLE1=Τζανετής Πάνος - Θα τραγουδήσω για σένα
TTITLE2=Αλεξίου Χάρις - Τι γλυκό να σ' αγαπούν
TTITLE3=Μητροπάνος Δημήτρης - Μεταξουργείο
TTITLE4=Βοσκόπουλος Τόλης - Η βαλίτσα
TTITLE5=Μοσχολιού Βίκυ - Πού ήσουν και χάθηκες
TTITLE6=Ζαμπέτας Γιώργος - Πατέρα κάτσε φρόνιμα
TTITLE7=Μοσχολιού Βίκυ - Αλήτη
TTITLE8=Δούκισσα - Πού πας χωρίς αγάπη
TTITLE9=Κόκοτας Σταμάτης - Έρχομαι, έρχομαι
TTITLE10=Μπιθικώτσης Γρηγόρης - Κυρ Αλέκο
TTITLE11=Μπλανς Μπέμπα - Το καράβι
TTITLE12=Ροδά Ελένη - Το ανθρωπάκι
TTITLE13=Καναρίδης Μανώλης - Όταν θα λάβεις αυτό το γράμμα
TTITLE14=Ζαμπέτας Γιώργος-χορωδία - Χίλια περιστέρια
TTITLE15=Μοσχολιού Βίκυ - Τα δάκρυα
TTITLE16=Μαρινέλλα - Τι να φταίει
TTITLE17=Βοσκόπουλος Τόλης - Έχασες το τραίνο
TTITLE18=Λίντα Μαίρη - Άκου τ' αηδόνια
TTITLE19=Ζαμπέτας Γιώργος - Ο αράπης
TTITLE20=Τσαουσάκης Πρόδρομος - Σαν σήμερα, σαν σήμερα
EXTD=
EXTT0=
EXTT1=
EXTT2=
EXTT3=
EXTT4=
EXTT5=
EXTT6=
EXTT7=
EXTT8=
EXTT9=
EXTT10=
EXTT11=
EXTT12=
EXTT13=
EXTT14=
EXTT15=
EXTT16=
EXTT17=
EXTT18=
EXTT19=
EXTT20=
PLAYORDER=
